<svg xmlns="http://www.w3.org/2000/svg" width="219.478" height="67.775" viewBox="0 0 219.478 67.775">
  <g id="logo" transform="translate(0.044 -0.039)">
    <path id="Path_1" data-name="Path 1" d="M70.6,177.786a10.587,10.587,0,0,1,3.97,3.865,10.407,10.407,0,0,1,1.453,5.411,10.667,10.667,0,0,1-5.423,9.344,11.3,11.3,0,0,1-11.02,0,10.7,10.7,0,0,1-5.423-9.344,10.414,10.414,0,0,1,1.459-5.411,10.63,10.63,0,0,1,3.951-3.865A11.452,11.452,0,0,1,70.6,177.786Z" transform="translate(-31.204 -153.642)" fill="#e8721e"/>
    <path id="Path_2" data-name="Path 2" d="M77.27,185.526a13.691,13.691,0,1,1-3.989-9.7,13.679,13.679,0,0,1,3.989,9.7Zm-3.568,0a9.894,9.894,0,0,0-2.937-7.21,10.167,10.167,0,1,0-7.173,17.346A10.043,10.043,0,0,0,73.7,185.526Z" transform="translate(-29.567 -151.896)" fill="#00325a"/>
    <path id="Path_3" data-name="Path 3" d="M128.177,199.27h-2.653V183.458a8.713,8.713,0,0,0-2.6-6.351,8.528,8.528,0,0,0-6.307-2.634,8.892,8.892,0,0,0-8.954,8.985V199.27H105V171.82h2.653v4.285a11.508,11.508,0,0,1,17.135-.872,11.285,11.285,0,0,1,3.37,8.237Z" transform="translate(-50.606 -151.906)" fill="#00325a"/>
    <path id="Path_4" data-name="Path 4" d="M176.775,199.269h-2.653V183.457a8.713,8.713,0,0,0-2.6-6.351,8.96,8.96,0,0,0-12.664,0,8.694,8.694,0,0,0-2.6,6.376v15.812H153.61V171.819h2.647V176.1a11.508,11.508,0,0,1,17.142-.872,11.267,11.267,0,0,1,3.376,8.237Z" transform="translate(-69.156 -151.905)" fill="#00325a"/>
    <path id="Path_5" data-name="Path 5" d="M228.666,186.892H204.017a10.593,10.593,0,0,0,3.605,6.957,10.76,10.76,0,0,0,7.371,2.77q6.184,0,9.894-6.066l2.313,1.342q-4.477,7.365-12.207,7.371a13.728,13.728,0,1,1,13.672-13.679Zm-2.746-2.653a11.026,11.026,0,0,0-21.9,0Z" transform="translate(-87.321 -151.902)" fill="#00325a"/>
    <path id="Path_6" data-name="Path 6" d="M321.048,199.447H318.4v-5.633a12.93,12.93,0,0,1-11.026,5.633,13.153,13.153,0,0,1-9.7-4,13.858,13.858,0,0,1,0-19.442,13.178,13.178,0,0,1,9.7-4.007A12.9,12.9,0,0,1,318.4,177.68V172h2.647ZM318.4,185.725a10.958,10.958,0,1,0-3.2,7.86A10.7,10.7,0,0,0,318.4,185.725Z" transform="translate(-122.614 -151.972)" fill="#00325a"/>
    <path id="Path_7" data-name="Path 7" d="M137.786,241.242l-.173-1.144a36.242,36.242,0,0,0-1.175-5.262,1.886,1.886,0,0,0-.148-.315h.934c.223,0,.291.223.334.4a37.761,37.761,0,0,1,.847,4.854c0,.2.043.291.117.291s.136-.186.167-.272l1.027-3.315a4.507,4.507,0,0,0,.186-1.311.8.8,0,0,0-.26-.618h1.787a.959.959,0,0,0-.229.618,5.126,5.126,0,0,0,.241,1.156l.94,3.531c.043.148.043.254.13.254s.093-.093.124-.254l.693-2.758a8.41,8.41,0,0,0,.278-2.041.55.55,0,0,0-.167-.495h1.36l-.247.42a5.912,5.912,0,0,0-.618,1.62l-1.2,4.681h-.872c-.21-.847-.377-1.7-.618-2.554l-.618-2.146c-.087-.284-.117-.513-.223-.513s-.142.229-.229.513l-1.045,3.178c-.155.489-.3.983-.458,1.478Z" transform="translate(-62.546 -175.833)" fill="#00325a"/>
    <path id="Path_8" data-name="Path 8" d="M153.06,240.763h1.206a2.69,2.69,0,0,0,1.812-.618l-.192.958c-.278,0-.618.056-1,.056H151.86a2.7,2.7,0,0,0,.26-1.373v-3.933a2.69,2.69,0,0,0-.229-1.373h3.648l.043.81a2.356,2.356,0,0,0-1.546-.39h-.977v2.474c.81,0,1.657,0,2.474-.074-.365.618-1.546.618-2.2.618h-.266Z" transform="translate(-68.488 -175.818)" fill="#00325a"/>
    <path id="Path_9" data-name="Path 9" d="M167.514,241.242l-.161-.538a46.734,46.734,0,0,0-1.966-5.825l-.167-.359h.934c.21,0,.26.241.315.4.544,1.62,1.15,3.228,1.589,4.885.049.2.105.3.167.3s.124-.167.179-.328c.3-.921,1.577-3.9,1.577-4.885a1.465,1.465,0,0,0-.049-.377h1.3l-.192.334a42.225,42.225,0,0,0-2.511,5.819l-.21.569Z" transform="translate(-73.587 -175.833)" fill="#00325a"/>
    <path id="Path_10" data-name="Path 10" d="M176.977,235.893a2.69,2.69,0,0,0-.229-1.373h1.385a2.69,2.69,0,0,0-.229,1.373v3.933a2.69,2.69,0,0,0,.229,1.373h-1.4a2.69,2.69,0,0,0,.229-1.373Z" transform="translate(-77.979 -175.833)" fill="#00325a"/>
    <path id="Path_11" data-name="Path 11" d="M181.446,239.785a2.078,2.078,0,0,0,1.855,1.057,1.268,1.268,0,0,0,1.391-1.3c0-1.762-2.993-1.54-2.993-3.475a1.858,1.858,0,0,1,2.1-1.812c.544,0,1.076.062,1.614.062v.977a1.632,1.632,0,0,0-1.459-.618,1.119,1.119,0,0,0-1.274,1.15c0,1.614,2.993,1.41,2.993,3.413a2.25,2.25,0,0,1-2.436,2.028,5.652,5.652,0,0,1-1.8-.365Z" transform="translate(-79.777 -175.73)" fill="#00325a"/>
    <path id="Path_12" data-name="Path 12" d="M191.369,235.893a2.69,2.69,0,0,0-.229-1.373h1.4a2.69,2.69,0,0,0-.229,1.373v3.933a2.69,2.69,0,0,0,.229,1.373h-1.4a2.69,2.69,0,0,0,.229-1.373Z" transform="translate(-83.478 -175.833)" fill="#00325a"/>
    <path id="Path_13" data-name="Path 13" d="M199.11,241.262c-2.2,0-3.16-1.509-3.16-3.37,0-1.991,1.15-3.642,3.327-3.642s3.16,1.509,3.16,3.37C202.437,239.611,201.287,241.262,199.11,241.262Zm.08-6.549c-1.509,0-2.152,1.379-2.152,2.888,0,1.379.47,3.2,2.152,3.2,1.509,0,2.158-1.379,2.158-2.888C201.348,236.532,200.879,234.714,199.19,234.714Z" transform="translate(-85.314 -175.73)" fill="#00325a"/>
    <path id="Path_14" data-name="Path 14" d="M208.6,241.176a8.608,8.608,0,0,0,.365-3.055v-2.232a1.991,1.991,0,0,0-.334-1.391h1.057c.2,0,.291,0,.42.167.216.3.884,1.416,1.237,1.855l2.084,2.943c.068.105.155.247.216.247s.074-.105.074-.2V235.8a2.647,2.647,0,0,0-.254-1.342h1.088a3.383,3.383,0,0,0-.309,1.558v5.163H213.5l-3.828-5.454c-.043-.062-.074-.117-.117-.117s-.062.068-.062.161V238.5a7.241,7.241,0,0,0,.309,2.678Z" transform="translate(-90.141 -175.81)" fill="#00325a"/>
    <path id="Path_15" data-name="Path 15" d="M226.74,241.2a2.69,2.69,0,0,0,.229-1.373v-.952a5.33,5.33,0,0,0-.73-2.288,7.674,7.674,0,0,0-1.379-2.065h.9c.377,0,.451.093.618.4a11.292,11.292,0,0,1,1.088,2.579c.043.161.087.315.167.315s.136-.179.241-.365l.711-1.237a3.092,3.092,0,0,0,.476-1.237.618.618,0,0,0-.161-.421h1.317l-1.193,1.855a4.594,4.594,0,0,0-1.125,3.012v.439a2.69,2.69,0,0,0,.229,1.373Z" transform="translate(-96.346 -175.833)" fill="#00325a"/>
    <path id="Path_16" data-name="Path 16" d="M237.9,241.262c-2.2,0-3.16-1.509-3.16-3.37,0-1.991,1.15-3.642,3.327-3.642s3.16,1.509,3.16,3.37C241.227,239.611,240.077,241.262,237.9,241.262Zm.093-6.549c-1.509,0-2.152,1.379-2.152,2.888,0,1.379.47,3.2,2.152,3.2,1.509,0,2.158-1.379,2.158-2.888C240.138,236.532,239.669,234.714,237.993,234.714Z" transform="translate(-100.117 -175.73)" fill="#00325a"/>
    <path id="Path_17" data-name="Path 17" d="M253.277,234.482a2.733,2.733,0,0,0-.229,1.385V239.8a2.616,2.616,0,0,0,.229,1.36l-1.237.062.043-.693c0-.031,0-.037-.056-.037s-.062.062-.124.111a3.005,3.005,0,0,1-2.022.724c-1.237,0-2.016-.495-2.047-1.781v-3.71a2.671,2.671,0,0,0-.235-1.385H249a2.733,2.733,0,0,0-.229,1.385v3.055c0,1.119.489,1.8,1.676,1.8s1.589-.767,1.62-2.01c0-.4.043-.8.043-1.237v-1.639a2.671,2.671,0,0,0-.235-1.385Z" transform="translate(-105.024 -175.795)" fill="#00325a"/>
    <path id="Path_18" data-name="Path 18" d="M263.877,240.141a5.564,5.564,0,0,0,.884.977h-.86a.989.989,0,0,1-.878-.575l-1.28-1.824c-.439-.618-.513-.8-1.119-.853v1.855a2.69,2.69,0,0,0,.229,1.373H259.4a2.473,2.473,0,0,0,.284-1.435v-3.871a2.69,2.69,0,0,0-.229-1.373c.878,0,1.713-.105,2.529-.105,1.07,0,1.62.618,1.62,1.4a2.171,2.171,0,0,1-1.546,1.892Zm-3.253-2.684a4.086,4.086,0,0,0,.47,0,1.4,1.4,0,0,0,1.571-1.54c0-1.045-.618-1.175-1.527-1.193h-.489v.5Z" transform="translate(-109.528 -175.753)" fill="#00325a"/>
    <path id="Path_19" data-name="Path 19" d="M275.935,239.826a2.69,2.69,0,0,0,.229,1.373h-1.4a2.69,2.69,0,0,0,.229-1.373v-3.933a2.69,2.69,0,0,0-.2-1.373H278c.266,0,.482,0,.482.093v.822h-.049c-.3-.476-.952-.489-1.447-.489H275.91v2.69c.8,0,1.651,0,2.474-.074-.365.618-1.546.618-2.2.618h-.26Z" transform="translate(-115.389 -175.833)" fill="#00325a"/>
    <path id="Path_20" data-name="Path 20" d="M288.937,234.482a2.733,2.733,0,0,0-.229,1.385V239.8a2.616,2.616,0,0,0,.229,1.36l-1.237.062.043-.693c0-.031,0-.037-.056-.037s-.062.062-.124.111a3.005,3.005,0,0,1-2.022.724c-1.237,0-2.016-.495-2.047-1.781v-3.71a2.672,2.672,0,0,0-.235-1.385h1.4a2.733,2.733,0,0,0-.229,1.385v3.055c.031,1.119.495,1.8,1.676,1.8s1.589-.767,1.62-2.01c0-.4.043-.8.043-1.237v-1.639a2.733,2.733,0,0,0-.229-1.385Z" transform="translate(-118.633 -175.795)" fill="#00325a"/>
    <path id="Path_21" data-name="Path 21" d="M296.295,241.2a2.69,2.69,0,0,0,.229-1.373v-4.78h-1.391a1.125,1.125,0,0,0-.742.229l.21-.754h5.262c-.179.451-.816.526-1.237.526h-1.15v4.78a2.69,2.69,0,0,0,.229,1.373Z" transform="translate(-122.88 -175.833)" fill="#00325a"/>
    <path id="Path_22" data-name="Path 22" d="M310.847,234.482a2.733,2.733,0,0,0-.229,1.385V239.8a2.616,2.616,0,0,0,.229,1.36l-1.237.062.043-.693c0-.031,0-.037-.056-.037s-.062.062-.124.111a3.005,3.005,0,0,1-2.022.724c-1.237,0-2.016-.495-2.047-1.781v-3.71a2.671,2.671,0,0,0-.235-1.385h1.4a2.734,2.734,0,0,0-.229,1.385v3.055c.031,1.119.489,1.8,1.676,1.8s1.589-.767,1.62-2.01c0-.4.043-.8.043-1.237v-1.639a2.672,2.672,0,0,0-.235-1.385Z" transform="translate(-126.994 -175.795)" fill="#00325a"/>
    <path id="Path_23" data-name="Path 23" d="M321.459,240.141a5.745,5.745,0,0,0,.878.977h-.853a.989.989,0,0,1-.878-.575l-1.28-1.824c-.439-.618-.513-.8-1.119-.853v1.855a2.69,2.69,0,0,0,.229,1.373H317a2.473,2.473,0,0,0,.284-1.435v-3.871a2.69,2.69,0,0,0-.229-1.373c.878,0,1.713-.105,2.529-.105,1.07,0,1.62.618,1.62,1.4a2.171,2.171,0,0,1-1.546,1.892Zm-3.222-2.684a4.086,4.086,0,0,0,.47,0,1.4,1.4,0,0,0,1.571-1.54c0-1.045-.618-1.175-1.527-1.193h-.513v2.733Z" transform="translate(-131.509 -175.753)" fill="#00325a"/>
    <path id="Path_24" data-name="Path 24" d="M328.275,240.763h1.237a2.665,2.665,0,0,0,1.806-.618l-.185.958c-.284,0-.618.056-1,.056H327.1a2.634,2.634,0,0,0,.266-1.373v-3.933a2.69,2.69,0,0,0-.229-1.373h3.611l.043.81a2.375,2.375,0,0,0-1.552-.39h-.965v2.474c.8,0,1.651,0,2.474-.074-.371.618-1.552.618-2.2.618h-.272Z" transform="translate(-135.363 -175.818)" fill="#00325a"/>
    <path id="Path_25" data-name="Path 25" d="M77.415,189.564l-13.808,1.02,2.845,1.738c0,.031-.049.056-.074.093A24.407,24.407,0,1,1,66.2,154.57a4.848,4.848,0,1,0,6.759-6.685A33.887,33.887,0,1,0,72.054,200l.878,3.018Z" transform="translate(-17.01 -139.64)" fill="#00325a"/>
    <path id="Path_26" data-name="Path 26" d="M363.118,171.479h-.47a13.246,13.246,0,0,0-9.727,3.995,15.1,15.1,0,0,0-1.237,1.4v-2.721s.049-1.787.105-2.678H349v27.79h2.684V182.931a11.316,11.316,0,0,1,10.945-8.818h.507Z" transform="translate(-143.721 -151.774)" fill="#00325a"/>
    <path id="Path_27" data-name="Path 27" d="M259.887,26.873l.346-6.413-5.912,2.1,2.245.643L244.644,39.277l-8.732-11.57H232.6l10.37,13.747-10.958,13.8h3.339l9.313-11.737,9.27,12.04h3.308L246.27,41.435l12.423-16.5Z" transform="translate(-88.556 -7.793)" fill="#e8721e"/>
    <rect id="Rectangle_33" data-name="Rectangle 33" width="156.085" height="1.898" transform="translate(63.349 51.755)" fill="#e8721e"/>
  </g>
</svg>
